<svg width="165" height="154" viewBox="0 0 165 154" fill="none" xmlns="http://www.w3.org/2000/svg">
<path d="M115.462 65.7574V43.7239L123.408 35.7539V54.8911L130.324 61.8163L158.126 33.961L165 40.8569C164.954 35.6327 163.916 20.5871 151.185 8.04909C137.449 -5.20777 122.616 0.772863 117.539 5.85494L89.7578 33.7144L96.8447 40.8193L82.5042 55.1962L68.1594 40.8193L75.2463 33.7144L47.4615 5.85076C42.3881 0.768686 27.5514 -5.21195 13.8153 8.04492C1.08388 20.5829 0.0583628 35.6286 0 40.836L6.8618 33.961L34.6633 61.8372L41.5793 54.912V35.7707L49.525 43.7407V65.7783L60.7432 77.0082L5.69038 132.205L27.443 154L82.5042 98.8118L137.532 154L159.289 132.205L104.244 77.0082L115.462 65.7574Z" fill="#FFFFFF"/>
</svg>
